<svg width="22" height="22" viewBox="0 0 22 22" fill="none" xmlns="http://www.w3.org/2000/svg">
<path d="M17.7707 10.6787C18.6987 10.6787 19.5053 10.0406 19.719 9.1383L21.296 2.48811C21.6126 1.22411 20.6564 0 19.3531 0H1.33394C0.596876 0 0 0.598002 0 1.33471C0 2.07143 0.598249 2.66943 1.33394 2.66943H2.6692V14.0155C2.6692 15.1221 3.5652 16.0178 4.67096 16.0178H18.6868C19.4238 16.0178 20.0207 15.4198 20.0207 14.6831C20.0207 13.9463 19.4238 13.3483 18.6868 13.3483H5.3384V10.6787L17.7707 10.6787ZM5.3387 2.66969H18.5094L17.2435 8.00914H5.33862L5.3387 2.66969ZM6.00636 17.3524C4.9006 17.3524 4.00326 18.2481 4.00326 19.3547C4.00326 20.4613 4.89927 21.357 6.00636 21.357C7.11345 21.357 8.00945 20.4613 8.00945 19.3547C8.00945 18.2481 7.11345 17.3524 6.00636 17.3524ZM16.6841 17.3524C15.5783 17.3524 14.6823 18.2481 14.6823 19.3547C14.6823 20.4613 15.5783 21.357 16.6841 21.357C17.7899 21.357 18.6872 20.4613 18.6872 19.3547C18.6872 18.2481 17.7912 17.3524 16.6841 17.3524Z" fill="#3A3A3A"/>
</svg>
