<svg width="12" height="14" viewBox="0 0 12 14" fill="none" xmlns="http://www.w3.org/2000/svg">
<path fill-rule="evenodd" clip-rule="evenodd" d="M5.99993 0.5C7.66761 0.5 9.01836 1.81626 9.01836 3.44118C9.01836 5.0661 7.66753 6.38237 5.99993 6.38237C4.33234 6.38237 2.9815 5.0661 2.9815 3.44118C2.9815 1.81626 4.33234 0.5 5.99993 0.5ZM6.08332 13.5C8.49912 13.4721 10.6336 12.3138 11.9582 10.5402L11.6104 9.11483C11.4984 8.35343 10.991 7.845 10.1548 7.54788L7.97723 6.93736C6.75507 7.59431 5.24469 7.59431 4.02245 6.93736L1.84488 7.54788C1.0087 7.845 0.501157 8.35343 0.389279 9.11483L0.0415039 10.5402C1.36606 12.3139 3.50074 13.4745 5.91636 13.5H6.08332Z" fill="#3A3A3A"/>
</svg>
