<svg width="11" height="14" viewBox="0 0 11 14" fill="none" xmlns="http://www.w3.org/2000/svg">
<path d="M2.92185 13.5C2.64129 13.4993 2.38068 13.3549 2.23113 13.1175C2.08181 12.8798 2.06426 12.5825 2.18489 12.3291L3.82254 8.84089L0.94842 8.79172C0.729457 8.7888 0.52073 8.69833 0.369018 8.54041C0.217306 8.38249 0.135068 8.17029 0.140917 7.95132C0.146766 7.73236 0.239981 7.52491 0.399909 7.37524L7.50732 0.726379C7.69393 0.548357 7.95365 0.468669 8.20809 0.511253C8.46251 0.554022 8.68184 0.714129 8.80026 0.94333C8.91852 1.17253 8.92181 1.44412 8.80922 1.67625L7.08164 5.36096L10.1195 5.66401C10.3332 5.68466 10.53 5.78829 10.6681 5.95279C10.806 6.1171 10.8739 6.3293 10.857 6.54314C10.8402 6.75716 10.7399 6.95602 10.5779 7.09694L3.46259 13.2952C3.31326 13.4268 3.1209 13.4998 2.92185 13.5ZM3.0529 7.18662H5.17361C5.4527 7.19027 5.71076 7.33576 5.85829 7.57282C6.00578 7.80969 6.02242 8.10562 5.90234 8.35763L5.36205 9.45481L8.08065 7.07198L5.76346 6.84278C5.49753 6.81591 5.26137 6.6611 5.13087 6.42788C5.00037 6.19466 4.99196 5.91245 5.1082 5.67176L5.4849 4.85293L3.0529 7.18662Z" fill="#1489FF"/>
<path d="M3.0529 7.18662H5.17361C5.4527 7.19027 5.71076 7.33576 5.85829 7.57282C6.00578 7.80969 6.02242 8.10562 5.90234 8.35763L5.36205 9.45481L8.08065 7.07198L5.76346 6.84278C5.49753 6.81591 5.26137 6.6611 5.13087 6.42788C5.00037 6.19466 4.99196 5.91245 5.1082 5.67176L5.4849 4.85293L3.0529 7.18662Z" fill="#1489FF"/>
</svg>
