<svg width="129" height="23" viewBox="0 0 129 23" fill="none" xmlns="http://www.w3.org/2000/svg">
<path d="M2.77576 15.7926C2.69935 15.9577 2.65756 16.1363 2.65291 16.3177C2.67989 16.5537 2.75805 16.7813 2.88211 16.985C3.00616 17.1887 3.1732 17.3636 3.37187 17.498C3.94598 17.9605 4.58517 18.3385 5.2694 18.6199C6.12851 18.9791 7.01969 19.2586 7.93139 19.4546C8.92068 19.6697 9.93076 19.778 10.9438 19.7778C13.5618 19.7778 15.4533 19.3978 16.6182 18.6379C17.7876 17.8794 18.3746 16.9056 18.3746 15.7073C18.3879 15.1963 18.2278 14.6956 17.9196 14.2847C17.6148 13.8799 17.1998 13.5687 16.7228 13.3871C16.1527 13.1691 15.5561 13.0258 14.9482 12.9608C14.2293 12.8773 13.506 12.8369 12.7822 12.8396C11.5171 12.8396 10.1793 12.8396 8.75957 12.8396C7.44119 12.8404 6.12897 12.6622 4.85985 12.31C3.74985 12.014 2.73989 11.4315 1.93393 10.6226C1.16036 9.83727 0.778119 8.67044 0.778119 7.12215C0.76954 6.17137 1.05704 5.24089 1.60176 4.45639C2.19286 3.62012 2.95951 2.91912 3.84966 2.40098C4.89736 1.79156 6.03048 1.3379 7.21243 1.05464C8.5891 0.717985 10.0033 0.55363 11.4216 0.565462C12.4525 0.552084 13.4825 0.634728 14.4977 0.812293C15.2557 0.948591 16.0061 1.12385 16.7456 1.33737C17.3781 1.53034 17.9014 1.70537 18.3155 1.86693C18.6395 2.01235 18.9884 2.0961 19.3439 2.11376C19.5766 2.13428 19.8094 2.07568 20.0037 1.94771C20.1484 1.83417 20.2867 1.71282 20.4178 1.5842L20.9138 1.78615L18.6386 6.46693L18.1835 6.1842C18.2192 6.01001 18.233 5.83215 18.2245 5.65464C18.2245 5.46166 18.0607 5.23278 17.733 4.95903C17.3032 4.63346 16.8301 4.36769 16.3269 4.16917C15.629 3.88096 14.9033 3.66295 14.1609 3.51844C13.2629 3.33496 12.3477 3.2462 11.4307 3.25366C9.20096 3.25366 7.43388 3.60521 6.12943 4.3083C4.82345 5.01737 4.16819 5.93737 4.16819 7.07727C4.14779 7.53064 4.30225 7.9748 4.60049 8.32039C4.93227 8.65767 5.34336 8.90895 5.79726 9.0519C6.37164 9.24055 6.96794 9.35666 7.57192 9.39747C8.24538 9.45132 8.96889 9.47824 9.73792 9.47824C11.0302 9.47824 12.3817 9.50068 13.7833 9.54107C15.0992 9.56819 16.4046 9.77974 17.6602 10.1694C18.7841 10.5132 19.7954 11.145 20.5907 12.0004C21.3612 12.8441 21.7465 14.0782 21.7465 15.7028C21.7436 16.5813 21.51 17.4441 21.0685 18.207C20.5613 19.0632 19.8624 19.7939 19.0253 20.3432C17.9982 21.0192 16.8606 21.5156 15.6626 21.8107C12.8723 22.4501 9.97785 22.5112 7.16238 21.9902C6.21128 21.8024 5.27922 21.5305 4.37751 21.178C3.60394 20.8683 2.97143 20.5811 2.47543 20.3253C2.11245 20.1064 1.70263 19.9742 1.27867 19.9393C1.10848 19.957 0.943839 20.0092 0.795061 20.0926C0.646283 20.176 0.51658 20.2888 0.414091 20.424L0 20.1817L2.22971 15.5009L2.77576 15.7926Z" fill="#060000"/>
<path d="M26.3788 1.56625C26.2763 1.46645 26.1523 1.3908 26.016 1.34495C25.8797 1.2991 25.7346 1.28423 25.5916 1.30146V0.816784H42.8833C43.3466 0.858671 43.8135 0.795739 44.2484 0.632782C44.3489 0.561747 44.4287 0.465891 44.4798 0.354828C44.531 0.243765 44.5516 0.121396 44.5396 0H45.031V4.64039H44.5396C44.5474 4.48598 44.5218 4.33171 44.4645 4.18779C44.4073 4.04388 44.3196 3.91362 44.2074 3.80566C43.8308 3.55898 43.3781 3.45094 42.9287 3.50049H30.051V9.93151H38.4284C38.8477 9.94809 39.2648 9.86335 39.6433 9.68468C39.8012 9.59679 39.9289 9.46439 40.0099 9.30448C40.091 9.14456 40.1218 8.96441 40.0984 8.78712H40.5944V13.7237H40.0984C40.1162 13.5623 40.0917 13.3992 40.0271 13.2498C39.9626 13.1005 39.8602 12.9701 39.7298 12.871C39.3491 12.6752 38.92 12.5896 38.4921 12.6242H30.051V19.5444H43.8434C44.2914 19.5762 44.7383 19.4695 45.1221 19.2392C45.2714 19.1041 45.3864 18.9362 45.4576 18.749C45.5287 18.5619 45.5541 18.3608 45.5316 18.1621H46.0276V23H45.5316C45.5316 22.4839 45.0493 22.2236 44.0891 22.2236H25.5916V21.7389C25.7346 21.7562 25.8797 21.7413 26.016 21.6954C26.1523 21.6496 26.2763 21.5739 26.3788 21.4741C26.5243 21.2647 26.5962 21.0141 26.5836 20.7606V2.27981C26.5962 2.02628 26.5243 1.77567 26.3788 1.56625Z" fill="#060000"/>
<path d="M69.8263 16.8472V2.27981C69.8389 2.02628 69.767 1.77567 69.6216 1.56625C69.52 1.46654 69.3967 1.3909 69.2611 1.34503C69.1255 1.29917 68.9812 1.28427 68.8389 1.30146V0.816784H73.7898V1.30146C73.6475 1.28393 73.503 1.29867 73.3674 1.34455C73.2317 1.39044 73.1085 1.46627 73.0071 1.56625C72.8578 1.77407 72.7841 2.02549 72.7978 2.27981V20.7561C72.7841 21.0104 72.8578 21.2618 73.0071 21.4697C73.1085 21.5696 73.2317 21.6455 73.3674 21.6913C73.503 21.7372 73.6475 21.752 73.7898 21.7344V22.2191H68.5067V21.7344C69.0573 21.7344 69.3303 21.6222 69.3303 21.4068C69.3327 21.2426 69.2745 21.0831 69.1665 20.958C69.0789 20.8609 68.9969 20.759 68.9208 20.6529L54.232 4.15122V20.7561C54.2194 21.0096 54.2914 21.2602 54.4368 21.4697C54.5382 21.5696 54.6614 21.6455 54.7971 21.6913C54.9327 21.7372 55.0772 21.752 55.2195 21.7344V22.2191H50.2686V21.7344C50.4109 21.752 50.5553 21.7372 50.691 21.6913C50.8266 21.6455 50.9498 21.5696 51.0513 21.4697C51.2005 21.2618 51.2743 21.0104 51.2606 20.7561V2.27981C51.2743 2.02549 51.2005 1.77407 51.0513 1.56625C50.9498 1.46627 50.8266 1.39044 50.691 1.34455C50.5553 1.29867 50.4109 1.28393 50.2686 1.30146V0.816784H57.2444V1.30146C57.0326 1.28443 56.8199 1.31992 56.6255 1.40469C56.5683 1.44182 56.5225 1.49359 56.4928 1.55446C56.4632 1.61533 56.4508 1.683 56.4572 1.75024C56.4636 1.84702 56.5002 1.93949 56.5618 2.01503C56.6302 2.10928 56.7063 2.19783 56.7894 2.27981L69.7444 16.8472H69.8263Z" fill="#060000"/>
<path d="M79.2366 1.56624C79.1346 1.46708 79.0113 1.3918 78.8759 1.34597C78.7404 1.30014 78.5962 1.28493 78.4539 1.30146V0.816781H91.2452C92.8154 0.792297 94.3762 1.06027 95.8457 1.60663C97.1464 2.09707 98.3267 2.85425 99.3086 3.82809C100.274 4.79893 101.027 5.95533 101.52 7.22537C102.05 8.59475 102.316 10.0499 102.303 11.5157C102.313 12.9763 102.088 14.4292 101.634 15.8195C101.227 17.0744 100.559 18.2316 99.6726 19.2168C98.7824 20.1855 97.683 20.9447 96.4554 21.4382C95.0441 21.9884 93.5361 22.2568 92.0188 22.2281H78.4539V21.7434C78.5962 21.7599 78.7404 21.7447 78.8759 21.6989C79.0113 21.6531 79.1346 21.5778 79.2366 21.4786C79.3821 21.2692 79.4539 21.0186 79.4414 20.7651V2.2798C79.4539 2.02628 79.3821 1.77567 79.2366 1.56624ZM91.6547 19.5175C94.0816 19.5175 95.9018 18.8383 97.1153 17.48C98.3287 16.1217 98.9354 14.1276 98.9354 11.4978C98.9354 8.8679 98.2407 6.87382 96.8513 5.51551C95.4619 4.1572 93.4901 3.47954 90.9358 3.48253H82.9088V19.5175H91.6547Z" fill="#060000"/>
<path d="M121.528 1.28352C122.972 1.72037 124.312 2.43921 125.469 3.39727C126.588 4.33877 127.478 5.51681 128.072 6.84391C129.309 9.84352 129.309 13.2014 128.072 16.201C127.481 17.5225 126.591 18.6925 125.469 19.6207C124.314 20.567 122.972 21.2669 121.528 21.6761C118.294 22.5629 114.875 22.5552 111.645 21.6537C110.202 21.243 108.86 20.5433 107.704 19.5982C106.584 18.6696 105.695 17.4996 105.106 16.1785C103.868 13.1789 103.868 9.82108 105.106 6.82147C105.699 5.49627 106.587 4.3198 107.704 3.37932C108.862 2.42307 110.202 1.70444 111.645 1.26557C114.875 0.313639 118.316 0.313639 121.547 1.26557L121.528 1.28352ZM110.079 5.49756C108.563 6.94264 107.804 8.93821 107.804 11.4843C107.804 14.0304 108.563 16.026 110.079 17.471C111.596 18.9191 113.762 19.6431 116.577 19.6431C119.393 19.6431 121.559 18.9191 123.075 17.471C124.592 16.026 125.351 14.0304 125.351 11.4843C125.351 8.93821 124.592 6.94264 123.075 5.49756C121.559 4.0495 119.393 3.32547 116.577 3.32547C113.762 3.32547 111.596 4.0495 110.079 5.49756Z" fill="#060000"/>
</svg>
