<svg width="13" height="14" viewBox="0 0 13 14" fill="none" xmlns="http://www.w3.org/2000/svg">
<path d="M3 2C3 2.82843 2.32843 3.5 1.5 3.5C0.671573 3.5 0 2.82843 0 2C0 1.17157 0.671573 0.5 1.5 0.5C2.32843 0.5 3 1.17157 3 2Z" fill="#3A3A3A"/>
<path d="M3 7C3 7.82843 2.32843 8.5 1.5 8.5C0.671573 8.5 0 7.82843 0 7C0 6.17157 0.671573 5.5 1.5 5.5C2.32843 5.5 3 6.17157 3 7Z" fill="#3A3A3A"/>
<path d="M3 12C3 12.8284 2.32843 13.5 1.5 13.5C0.671573 13.5 0 12.8284 0 12C0 11.1716 0.671573 10.5 1.5 10.5C2.32843 10.5 3 11.1716 3 12Z" fill="#3A3A3A"/>
<path d="M8 2C8 2.82843 7.32843 3.5 6.5 3.5C5.67157 3.5 5 2.82843 5 2C5 1.17157 5.67157 0.5 6.5 0.5C7.32843 0.5 8 1.17157 8 2Z" fill="#3A3A3A"/>
<path d="M8 7C8 7.82843 7.32843 8.5 6.5 8.5C5.67157 8.5 5 7.82843 5 7C5 6.17157 5.67157 5.5 6.5 5.5C7.32843 5.5 8 6.17157 8 7Z" fill="#3A3A3A"/>
<path d="M8 12C8 12.8284 7.32843 13.5 6.5 13.5C5.67157 13.5 5 12.8284 5 12C5 11.1716 5.67157 10.5 6.5 10.5C7.32843 10.5 8 11.1716 8 12Z" fill="#3A3A3A"/>
<path d="M13 2C13 2.82843 12.3284 3.5 11.5 3.5C10.6716 3.5 10 2.82843 10 2C10 1.17157 10.6716 0.5 11.5 0.5C12.3284 0.5 13 1.17157 13 2Z" fill="#3A3A3A"/>
<path d="M13 7C13 7.82843 12.3284 8.5 11.5 8.5C10.6716 8.5 10 7.82843 10 7C10 6.17157 10.6716 5.5 11.5 5.5C12.3284 5.5 13 6.17157 13 7Z" fill="#3A3A3A"/>
<path d="M13 12C13 12.8284 12.3284 13.5 11.5 13.5C10.6716 13.5 10 12.8284 10 12C10 11.1716 10.6716 10.5 11.5 10.5C12.3284 10.5 13 11.1716 13 12Z" fill="#3A3A3A"/>
</svg>
